<svg id="bed-9218" xmlns="http://www.w3.org/2000/svg" width="36.935" height="30.339" viewBox="0 0 36.935 30.339">
  <path id="Path_780" data-name="Path 780" d="M36.113,109.467H.821A.821.821,0,0,1,0,108.647v-5.708a2.985,2.985,0,0,1,2.981-2.981H33.953a2.985,2.985,0,0,1,2.981,2.981v5.708A.821.821,0,0,1,36.113,109.467ZM1.642,107.826H35.293v-4.888a1.341,1.341,0,0,0-1.34-1.339H2.981a1.341,1.341,0,0,0-1.34,1.339v4.888Z" transform="translate(0 -88.657)" fill="currentColor"/>
  <path id="Path_781" data-name="Path 781" d="M36.113,165.006H31.84a.821.821,0,0,1-.821-.821V160.9H5.915v3.287a.821.821,0,0,1-.821.821H.821A.821.821,0,0,1,0,164.186v-9.529a.821.821,0,0,1,.821-.821H36.113a.821.821,0,0,1,.821.821v9.529A.821.821,0,0,1,36.113,165.006Zm-3.453-1.642h2.632v-7.887H1.642v7.887H4.273v-3.287a.821.821,0,0,1,.821-.821H31.84a.821.821,0,0,1,.821.821v3.287Z" transform="translate(0 -134.667)" fill="currentColor"/>
  <path id="Path_782" data-name="Path 782" d="M48.91,35.521H18.9a.821.821,0,0,1-.821-.821V25.279a2.7,2.7,0,0,1,2.7-2.7H47.031a2.7,2.7,0,0,1,2.7,2.7V34.7A.821.821,0,0,1,48.91,35.521ZM19.718,33.879H48.09v-8.6a1.06,1.06,0,0,0-1.059-1.059H20.777a1.06,1.06,0,0,0-1.059,1.059Z" transform="translate(-15.437 -22.578)" fill="currentColor"/>
  <path id="Path_783" data-name="Path 783" d="M51.126,70.651H41.043a.821.821,0,0,1-.821-.821V65.918a2.2,2.2,0,0,1,2.2-2.2h7.322a2.2,2.2,0,0,1,2.2,2.2V69.83A.821.821,0,0,1,51.126,70.651Zm-9.262-1.642H50.3V65.918a.56.56,0,0,0-.559-.559H42.423a.56.56,0,0,0-.559.559Z" transform="translate(-34.348 -57.709)" fill="currentColor"/>
  <path id="Path_784" data-name="Path 784" d="M143.3,70.651H133.22a.821.821,0,0,1-.821-.821V65.918a2.2,2.2,0,0,1,2.2-2.2h7.322a2.2,2.2,0,0,1,2.2,2.2V69.83A.82.82,0,0,1,143.3,70.651Zm-9.262-1.642h8.441V65.918a.56.56,0,0,0-.559-.559H134.6a.56.56,0,0,0-.559.559Z" transform="translate(-113.063 -57.709)" fill="currentColor"/>
</svg>
