<svg xmlns="http://www.w3.org/2000/svg" width="34.712" height="32.737" viewBox="0 0 34.712 32.737">
  <g id="diamond-3717" transform="translate(0.5 0.5)">
    <path id="Path_779" data-name="Path 779" d="M33.686,15.468a.368.368,0,0,0,.02-.1c0-.009.005-.017.005-.027a.045.045,0,0,0,0-.007.268.268,0,0,0-.047-.167.352.352,0,0,0-.038-.065L27.36,7.543c-.01-.012-.025-.017-.036-.028a.337.337,0,0,0-.046-.046c-.009-.006-.018-.006-.027-.011a.346.346,0,0,0-.061-.024.383.383,0,0,0-.088-.02c-.01,0-.019-.007-.03-.007H6.64c-.01,0-.019.006-.03.007a.475.475,0,0,0-.149.044c-.009,0-.018.005-.027.01a.348.348,0,0,0-.046.045.463.463,0,0,0-.037.028L.086,15.1a.368.368,0,0,0-.039.066c-.006.012-.015.021-.019.033A.377.377,0,0,0,0,15.335s0,0,0,.007,0,.017.005.026a.357.357,0,0,0,.02.1.347.347,0,0,0,.022.046.367.367,0,0,0,.021.042L16.549,38.984a.376.376,0,0,0,.069.073l.013.01.019.012a.392.392,0,0,0,.064.034l.028.011.027.009h0a.367.367,0,0,0,.078.009h.007a.367.367,0,0,0,.078-.009h0l.027-.009.028-.01a.382.382,0,0,0,.065-.034l.019-.013.013-.01a.378.378,0,0,0,.069-.073L33.642,15.557a.344.344,0,0,0,.021-.043A.253.253,0,0,0,33.686,15.468ZM6.606,8.411l4.312,6.556H1.172Zm15.027,7.305L16.856,37.054,12.08,15.716Zm-9.3-.749,4.528-6.528,4.529,6.528H12.328Zm5.244-6.811h8.805l-4.285,6.516ZM11.62,14.672,7.335,8.156H16.14Zm-.308,1.044,4.767,21.3L1.1,15.716Zm11.088,0H32.616l-14.983,21.3Zm.395-.749,4.311-6.556,5.434,6.556Z" transform="translate(0 -7.407)" fill="#07aeaf" stroke="#07aeaf" stroke-width="1"/>
  </g>
</svg>
