<svg xmlns="http://www.w3.org/2000/svg" width="36.433" height="27.671" viewBox="0 0 36.433 27.671">
  <path id="Path_763" data-name="Path 763" d="M35.314,30.713H1.118A1.118,1.118,0,0,0,0,31.831V53.182A1.118,1.118,0,0,0,1.118,54.3h12.83a10.643,10.643,0,0,1-1.5,3.523.365.365,0,0,0,.308.561H23.676a.365.365,0,0,0,.308-.561,10.635,10.635,0,0,1-1.5-3.523h12.83a1.118,1.118,0,0,0,1.118-1.118V31.831A1.119,1.119,0,0,0,35.314,30.713Zm-.1,1.214V49.453h-34V31.928Z" transform="translate(0 -30.713)" fill="#07aeaf" fill-rule="evenodd"/>
</svg>
