<svg xmlns="http://www.w3.org/2000/svg" width="44.999" height="36.303" viewBox="0 0 44.999 36.303">
  <g id="fruits-9541" transform="translate(0.252 0.251)">
    <path id="Path_764" data-name="Path 764" d="M129.547,80.417c-.25,0-.5-.011-.761-.034a.494.494,0,1,1,.088-.984c5.41.487,9.031-4.983,10.221-10.616.586-3.469-.5-6.628-2.895-8.431a7.375,7.375,0,0,0-7.765-.528.492.492,0,0,1-.429,0,7.377,7.377,0,0,0-7.407.276,8.12,8.12,0,0,0-3.4,7.288.494.494,0,1,1-.988.041,9.1,9.1,0,0,1,3.844-8.155,8.3,8.3,0,0,1,8.164-.441,8.308,8.308,0,0,1,8.573.728c2.7,2.029,3.924,5.545,3.272,9.405C138.836,74.785,135.134,80.416,129.547,80.417Z" transform="translate(-95.772 -52.111)" fill="#07aeaf" stroke="#07aeaf" stroke-width="0.5"/>
    <path id="Path_765" data-name="Path 765" d="M149.226,28c-.041-.15-.092-.357-.126-.512s-.066-.319-.093-.482c-.034-.211-.057-.4-.076-.581a11.41,11.41,0,0,1-.06-1.292.494.494,0,0,1,.466-.488,5.53,5.53,0,0,1,4.255,1.444,7.794,7.794,0,0,1,2.044,5.818.494.494,0,0,1-.494.489h-.005a.494.494,0,0,1-.489-.5A6.832,6.832,0,0,0,152.91,26.8a4.368,4.368,0,0,0-3.045-1.181c.009.236.025.47.049.7.018.167.038.333.064.5s.057.318.088.459.063.274.1.408l.015.056a8.023,8.023,0,0,0,.319.887,4.777,4.777,0,0,0,1.471,1.92.494.494,0,0,1-.6.789,5.755,5.755,0,0,1-1.779-2.309l-.03-.065a7.779,7.779,0,0,1-.325-.914S149.227,28,149.226,28Z" transform="translate(-122.696 -24.634)" fill="#07aeaf" stroke="#07aeaf" stroke-width="0.5"/>
    <path id="Path_766" data-name="Path 766" d="M182.23,35.9a.494.494,0,0,1-.494-.489c-.032-2.937,1.009-5.288,2.854-6.45a.494.494,0,1,1,.527.836c-1.549.975-2.421,3.017-2.393,5.6a.494.494,0,0,1-.489.5Z" transform="translate(-149.782 -28.135)" fill="#07aeaf" stroke="#07aeaf" stroke-width="0.5"/>
    <path id="Path_767" data-name="Path 767" d="M213.03,147.5a.494.494,0,0,1-.357-.835,9.134,9.134,0,0,0,.947-1.181.494.494,0,0,1,.819.554,10.064,10.064,0,0,1-1.05,1.309A.5.5,0,0,1,213.03,147.5Z" transform="translate(-175.168 -124.055)" fill="#07aeaf" stroke="#07aeaf" stroke-width="0.5"/>
    <path id="Path_768" data-name="Path 768" d="M208.522,85.421a.493.493,0,0,1-.461-.67,14.78,14.78,0,0,0,.649-2.215c.657-3.89-1.543-6.469-4.058-7a.494.494,0,0,1,.2-.967c2.976.624,5.59,3.623,4.826,8.148a15.825,15.825,0,0,1-.7,2.383A.5.5,0,0,1,208.522,85.421Z" transform="translate(-168.346 -65.784)" fill="#07aeaf" stroke="#07aeaf" stroke-width="0.5"/>
    <path id="Path_769" data-name="Path 769" d="M35.914,149.278a4.9,4.9,0,1,1,4.094-7.605.494.494,0,1,1-.825.543,3.914,3.914,0,1,0-2.809,6.047.494.494,0,0,1,.116.981A5.017,5.017,0,0,1,35.914,149.278Z" transform="translate(-25.562 -119.284)" fill="#07aeaf" stroke="#07aeaf" stroke-width="0.5"/>
    <path id="Path_770" data-name="Path 770" d="M106.245,115.049a.494.494,0,0,1-.461-.669,3.914,3.914,0,1,0-7.542-.883.494.494,0,0,1-.98.127,4.9,4.9,0,1,1,9.446,1.106A.494.494,0,0,1,106.245,115.049Z" transform="translate(-80.127 -93.416)" fill="#07aeaf" stroke="#07aeaf" stroke-width="0.5"/>
    <path id="Path_771" data-name="Path 771" d="M79.517,146.087a4.913,4.913,0,1,1,2.1-.475A4.9,4.9,0,0,1,79.517,146.087Zm-.006-8.821a3.915,3.915,0,0,0-3.534,5.591h0a3.911,3.911,0,1,0,3.534-5.592Z" transform="translate(-61.491 -116.65)" fill="#07aeaf" stroke="#07aeaf" stroke-width="0.5"/>
    <path id="Path_772" data-name="Path 772" d="M132.906,148.414a.508.508,0,0,1-.111-.012.494.494,0,0,1-.371-.592,3.874,3.874,0,0,0-.278-2.55,3.92,3.92,0,0,0-5.213-1.862,3.873,3.873,0,0,0-1.832,1.8.494.494,0,0,1-.886-.437,4.849,4.849,0,0,1,2.3-2.257,4.9,4.9,0,0,1,6.529,2.331,4.848,4.848,0,0,1,.348,3.194A.494.494,0,0,1,132.906,148.414Z" transform="translate(-102.332 -121.392)" fill="#07aeaf" stroke="#07aeaf" stroke-width="0.5"/>
    <path id="Path_773" data-name="Path 773" d="M149.262,182.208a4.873,4.873,0,0,1-4.351-2.682.494.494,0,1,1,.88-.449,3.912,3.912,0,1,0-.008-3.542.494.494,0,1,1-.882-.445,4.9,4.9,0,0,1,8.806.11,4.916,4.916,0,0,1-4.446,7.007Z" transform="translate(-119.381 -146.414)" fill="#07aeaf" stroke="#07aeaf" stroke-width="0.5"/>
    <path id="Path_774" data-name="Path 774" d="M30.264,98.547a.492.492,0,0,1-.256-.072,12.014,12.014,0,0,1-5.743-9.3.494.494,0,1,1,.981-.121,10.936,10.936,0,0,0,5.276,8.578.494.494,0,0,1-.257.916Z" transform="translate(-19.995 -77.369)" fill="#07aeaf" stroke="#07aeaf" stroke-width="0.5"/>
    <path id="Path_775" data-name="Path 775" d="M2.3,141.831a.488.488,0,0,1-.287-.092.493.493,0,0,1-.2-.324,5.16,5.16,0,0,1,1.374-4.645,5.16,5.16,0,0,1-3.169-3.663.494.494,0,0,1,.354-.609,14.632,14.632,0,0,1,9.742.648.5.5,0,0,1,.284.347l.042.2a.494.494,0,0,1-.951.265,13.562,13.562,0,0,0-8.364-.62,4.171,4.171,0,0,0,3.152,2.747.494.494,0,0,1,.188.87,4.172,4.172,0,0,0-1.737,3.8,15.115,15.115,0,0,0,3.428-1.135.494.494,0,0,1,.425.893,16.389,16.389,0,0,1-4.2,1.314A.459.459,0,0,1,2.3,141.831Z" transform="translate(-0.001 -113.091)" fill="#07aeaf" stroke="#07aeaf" stroke-width="0.5"/>
    <path id="Path_776" data-name="Path 776" d="M53.341,109.286a.493.493,0,0,1-.427-.245c-.072-.123-.139-.25-.2-.38a4.9,4.9,0,1,1,8.86-4.2,4.962,4.962,0,0,1,.263.68.494.494,0,0,1-.946.287,3.972,3.972,0,0,0-.21-.544,3.914,3.914,0,0,0-7.074,3.351c.049.1.1.206.161.3a.494.494,0,0,1-.177.676A.485.485,0,0,1,53.341,109.286Z" transform="translate(-43.057 -88.117)" fill="#07aeaf" stroke="#07aeaf" stroke-width="0.5"/>
    <path id="Path_777" data-name="Path 777" d="M62.71,182.3a4.9,4.9,0,0,1-1.1-9.681.494.494,0,0,1,.222.963,3.956,3.956,0,0,0-.8.279,3.914,3.914,0,1,0,4.738,5.975.494.494,0,1,1,.774.615A4.911,4.911,0,0,1,62.71,182.3Z" transform="translate(-47.636 -146.591)" fill="#07aeaf" stroke="#07aeaf" stroke-width="0.5"/>
    <path id="Path_778" data-name="Path 778" d="M102.34,182.3a4.9,4.9,0,0,1-4.4-7.083.494.494,0,0,1,.885.439,3.914,3.914,0,1,0,3.445-2.171.494.494,0,1,1-.015-.988,4.9,4.9,0,1,1,.082,9.8Z" transform="translate(-80.298 -146.502)" fill="#07aeaf" stroke="#07aeaf" stroke-width="0.5"/>
  </g>
</svg>
