<svg xmlns="http://www.w3.org/2000/svg" width="25.923" height="23.866" viewBox="0 0 25.923 23.866">
  <g id="gift-912" transform="translate(0.1 -10.055)">
    <path id="Path_762" data-name="Path 762" d="M24.915,14.189H19.173a1.011,1.011,0,0,0,.018-.175V11.19a1.023,1.023,0,0,0-1.549-.878l-4.713,2.823c-.024.014-.045.032-.067.048-.022-.016-.043-.033-.067-.048L8.081,10.312a1.023,1.023,0,0,0-1.549.878v2.823a1.011,1.011,0,0,0,.018.175H.808A.81.81,0,0,0,0,15V17.86a.809.809,0,0,0,.808.808h.718V32.661A1.16,1.16,0,0,0,2.685,33.82H23.038A1.16,1.16,0,0,0,24.2,32.661V18.669h.718a.809.809,0,0,0,.808-.808V15A.809.809,0,0,0,24.915,14.189Zm-11.55-.326,4.713-2.823a.172.172,0,0,1,.089-.026.179.179,0,0,1,.087.024.17.17,0,0,1,.089.153v2.823a.175.175,0,0,1-.175.175H13.455a.161.161,0,0,1-.166-.12,1.08,1.08,0,0,0,0-.121A.164.164,0,0,1,13.364,13.863Zm2.426,3.958H9.933V15.037h5.858v2.784ZM7.38,14.013V11.19a.17.17,0,0,1,.089-.153.18.18,0,0,1,.087-.024.174.174,0,0,1,.089.026l4.713,2.823a.165.165,0,0,1,.073.085,1.065,1.065,0,0,0,0,.121.161.161,0,0,1-.166.121H7.556A.176.176,0,0,1,7.38,14.013ZM.848,17.821V15.037H9.085v2.784H.848ZM2.685,32.972a.311.311,0,0,1-.311-.311V18.669h8.52v14.3H2.685Zm9.057,0v-14.3H13.98v14.3H11.743Zm11.606-.311a.311.311,0,0,1-.311.311H14.828v-14.3h8.52Zm1.527-14.84H16.639V15.037h8.237v2.784Z" transform="translate(0 0)" fill="#707070" stroke="#707070" stroke-width="0.2"/>
  </g>
</svg>
